<svg width="420" height="320" viewBox="0 0 420 320" fill="none" xmlns="http://www.w3.org/2000/svg">
  <defs>
    <linearGradient id="phone" x1="0" y1="0" x2="420" y2="320" gradientUnits="userSpaceOnUse">
      <stop stop-color="#F472B6" />
      <stop offset="1" stop-color="#A855F7" />
    </linearGradient>
    <linearGradient id="pulse" x1="60" y1="40" x2="340" y2="280" gradientUnits="userSpaceOnUse">
      <stop stop-color="#fff" stop-opacity="0.8" />
      <stop offset="1" stop-color="#FBBF24" stop-opacity="0.7" />
    </linearGradient>
  </defs>
  <rect x="120" y="20" width="180" height="280" rx="36" fill="#0B1021" stroke="url(#phone)" stroke-width="4" />
  <rect x="144" y="60" width="132" height="200" rx="24" fill="#111827" stroke="url(#phone)" stroke-width="2" />
  <circle cx="208" cy="44" r="6" fill="#1F2937" />
  <rect x="184" y="260" width="48" height="12" rx="6" fill="#1F2937" />
  <path d="M158 196C170 172 186 150 202 154C218 158 226 190 242 190C258 190 274 160 288 152" stroke="url(#pulse)" stroke-width="10" stroke-linecap="round" stroke-linejoin="round"/>
  <circle cx="186" cy="168" r="8" fill="#F59E0B" />
  <circle cx="240" cy="184" r="8" fill="#22D3EE" />
  <circle cx="276" cy="148" r="8" fill="#8B5CF6" />
  <rect x="158" y="94" width="112" height="12" rx="6" fill="#1F4BFF" fill-opacity="0.5" />
  <rect x="158" y="120" width="86" height="10" rx="5" fill="#A855F7" fill-opacity="0.5" />
  <rect x="158" y="142" width="72" height="8" rx="4" fill="#6EE7FF" fill-opacity="0.5" />
</svg>
