<svg width="560" height="340" viewBox="0 0 560 340" fill="none" xmlns="http://www.w3.org/2000/svg">
  <defs>
    <linearGradient id="bg" x1="0" y1="0" x2="560" y2="340" gradientUnits="userSpaceOnUse">
      <stop stop-color="#0F172A" />
      <stop offset="1" stop-color="#1F4BFF" stop-opacity="0.5" />
    </linearGradient>
    <linearGradient id="accent" x1="120" y1="40" x2="420" y2="300" gradientUnits="userSpaceOnUse">
      <stop stop-color="#6EE7FF" />
      <stop offset="1" stop-color="#A855F7" />
    </linearGradient>
  </defs>
  <rect width="560" height="340" rx="32" fill="url(#bg)" />
  <rect x="24" y="20" width="512" height="300" rx="26" fill="#0B1021" stroke="url(#accent)" stroke-opacity="0.35" stroke-width="2" />
  <rect x="48" y="70" width="180" height="220" rx="18" fill="url(#accent)" fill-opacity="0.18" />
  <rect x="248" y="70" width="264" height="60" rx="16" fill="url(#accent)" fill-opacity="0.25" />
  <rect x="248" y="150" width="264" height="36" rx="12" fill="#1E293B" />
  <rect x="248" y="200" width="264" height="30" rx="12" fill="#1E293B" />
  <rect x="248" y="240" width="200" height="20" rx="10" fill="#1E293B" />
  <circle cx="80" cy="44" r="6" fill="#ef4444" />
  <circle cx="100" cy="44" r="6" fill="#f59e0b" />
  <circle cx="120" cy="44" r="6" fill="#10b981" />
  <path d="M120 120C150 100 190 120 210 150C230 180 250 205 280 190C310 175 340 200 360 220C380 240 420 248 440 226" stroke="url(#accent)" stroke-width="8" stroke-linecap="round" stroke-linejoin="round" stroke-opacity="0.85"/>
</svg>
